<svg xmlns="http://www.w3.org/2000/svg" viewBox="0 0 64 64" width="64" height="64" role="img" aria-label="Showbook">
  <title>Showbook</title>
  <g transform="rotate(-6 32 32)">
    <path fill="#FFD166" fill-rule="evenodd" d="
      M 14.5 18
      H 49.5
      A 3.5 3.5 0 0 1 53 21.5
      V 30
      A 3.75 3.75 0 0 0 49.25 33.75
      A 3.75 3.75 0 0 0 53 37.5
      V 42.5
      A 3.5 3.5 0 0 1 49.5 46
      H 14.5
      A 3.5 3.5 0 0 1 11 42.5
      V 37.5
      A 3.75 3.75 0 0 0 14.75 33.75
      A 3.75 3.75 0 0 0 11 30
      V 21.5
      A 3.5 3.5 0 0 1 14.5 18
      Z"/>
    <text x="32" y="41.5" font-family="-apple-system, BlinkMacSystemFont, 'Inter', 'Helvetica Neue', Arial, sans-serif"
          font-weight="900" font-size="26" fill="#0C0C0C" text-anchor="middle"
          letter-spacing="-1">S</text>
  </g>
</svg>